<svg width="15" height="17" viewBox="0 0 15 17" fill="none" xmlns="http://www.w3.org/2000/svg">
<path fill-rule="evenodd" clip-rule="evenodd" d="M7.12377 4.41189C7.12377 5.90962 5.90962 7.12377 4.41189 7.12377C2.91415 7.12377 1.7 5.90962 1.7 4.41189C1.7 2.91415 2.91415 1.7 4.41189 1.7C5.90962 1.7 7.12377 2.91415 7.12377 4.41189ZM8.82325 5.29425C8.77383 5.29425 8.72902 5.32704 8.71827 5.37528C8.27876 7.34858 6.5176 8.82377 4.41189 8.82377C1.97527 8.82377 0 6.8485 0 4.41189C0 1.97527 1.97527 0 4.41189 0C6.51758 0 8.27874 1.47518 8.71826 3.44845C8.72901 3.49669 8.77382 3.52949 8.82325 3.52949H13.2351C13.7225 3.52949 14.1175 3.92455 14.1175 4.41187C14.1175 4.89919 13.7225 5.29425 13.2351 5.29425H8.82325Z" fill="white"/>
<path fill-rule="evenodd" clip-rule="evenodd" d="M7.87696 12.3533C7.87696 10.8555 9.09112 9.6414 10.5888 9.6414C12.0866 9.6414 13.3007 10.8555 13.3007 12.3533C13.3007 13.851 12.0866 15.0652 10.5888 15.0652C9.09111 15.0652 7.87696 13.851 7.87696 12.3533ZM6.17743 11.4709C6.22688 11.4709 6.27172 11.4381 6.28247 11.3898C6.722 9.41657 8.48315 7.9414 10.5888 7.9414C13.0255 7.9414 15.0007 9.91667 15.0007 12.3533C15.0007 14.7899 13.0255 16.7652 10.5888 16.7652C8.48317 16.7652 6.72203 15.29 6.28248 13.3168C6.27173 13.2685 6.22689 13.2357 6.17743 13.2357L1.76555 13.2357C1.27822 13.2357 0.88317 12.8406 0.88317 12.3533C0.88317 11.866 1.27822 11.4709 1.76555 11.4709L6.17743 11.4709Z" fill="white"/>
</svg>
