<svg width="375" height="812" viewBox="0 0 375 812" fill="none" xmlns="http://www.w3.org/2000/svg">
<g clip-path="url(#clip0_46_2654)">
<rect width="375" height="812" rx="30" fill="#18A0FB"/>
<ellipse cx="103" cy="765.5" rx="117" ry="116.5" fill="white" fill-opacity="0.1"/>
<ellipse cx="366" cy="79.5" rx="117" ry="116.5" fill="white" fill-opacity="0.1"/>
<ellipse cx="103" cy="766" rx="136" ry="135" fill="white" fill-opacity="0.1"/>
<ellipse cx="366" cy="80" rx="136" ry="135" fill="white" fill-opacity="0.1"/>
<ellipse cx="103" cy="766" rx="167" ry="166" fill="white" fill-opacity="0.1"/>
<ellipse cx="366" cy="80" rx="167" ry="166" fill="white" fill-opacity="0.1"/>
<path d="M220.133 335.525C204.352 333.202 209.415 333.948 208.38 333.795C207.482 333.663 206.622 333.419 205.815 333.069H169.333C168.525 333.419 167.665 333.663 166.767 333.795C165.744 333.946 170.795 333.202 155.014 335.525C143.484 337.222 134.922 347.393 134.922 359.391V384.291H240.226V359.391C240.226 347.393 231.664 337.222 220.133 335.525Z" fill="#B3F1FF"/>
<path d="M187.572 236.014C168.187 236.014 152.471 252.207 152.471 272.179L152.98 284.234H222.164L222.673 272.179C222.673 252.207 206.957 236.014 187.572 236.014Z" fill="#C1B0B5"/>
<path d="M222.147 284.62L222.165 284.235C215.981 284.207 210.973 279.03 210.973 272.653V272.18H200.659C192.639 272.18 185.308 267.514 181.722 260.125C181.722 266.782 176.483 272.18 170.022 272.18H164.172V272.653C164.172 279.03 159.164 284.207 152.98 284.235L152.998 284.62C149.327 285.699 146.621 289.147 146.621 293.276C146.621 298.27 150.549 302.317 155.396 302.317H158.506C162.677 310.988 168.749 318.727 175.875 322.976L175.872 322.979C175.872 327.479 173.213 331.415 169.332 333.069L187.573 356.565L205.814 333.069C201.932 331.415 199.273 327.479 199.273 322.979L199.27 322.976C206.396 318.727 212.468 310.988 216.639 302.317H219.749C224.596 302.317 228.524 298.27 228.524 293.276C228.524 289.147 225.818 285.699 222.147 284.62Z" fill="#FCE8D0"/>
<path d="M216.824 372.236C220.055 372.236 222.675 369.537 222.675 366.208C222.675 362.879 220.055 360.181 216.824 360.181C213.593 360.181 210.974 362.879 210.974 366.208C210.974 369.537 213.593 372.236 216.824 372.236Z" fill="#F3EFF0"/>
<path d="M199.278 290.261C200.894 290.261 202.203 288.912 202.203 287.248C202.203 285.583 200.894 284.234 199.278 284.234C197.663 284.234 196.353 285.583 196.353 287.248C196.353 288.912 197.663 290.261 199.278 290.261Z" fill="#202244"/>
<path d="M175.876 290.261C177.491 290.261 178.801 288.912 178.801 287.248C178.801 285.583 177.491 284.234 175.876 284.234C174.26 284.234 172.951 285.583 172.951 287.248C172.951 288.912 174.26 290.261 175.876 290.261Z" fill="#202244"/>
<path d="M187.576 317.385C192.525 317.385 196.959 314.155 198.609 309.348C199.147 307.779 198.349 306.057 196.826 305.502C195.304 304.948 193.632 305.769 193.093 307.339C192.268 309.742 190.051 311.357 187.576 311.357C185.101 311.357 182.883 309.742 182.058 307.339C181.52 305.769 179.848 304.948 178.325 305.502C176.802 306.057 176.004 307.779 176.543 309.348C178.193 314.155 182.627 317.385 187.576 317.385Z" fill="#202244"/>
<path d="M216.83 387.304C218.446 387.304 219.755 385.955 219.755 384.29C219.755 382.626 218.446 381.277 216.83 381.277C215.215 381.277 213.905 382.626 213.905 384.29C213.905 385.955 215.215 387.304 216.83 387.304Z" fill="#202244"/>
<path d="M229.991 381.277C228.376 381.277 227.066 382.626 227.066 384.29C227.066 385.955 228.376 387.304 229.991 387.304H240.229C241.845 387.304 243.154 385.955 243.154 384.29V359.391C243.154 345.883 233.505 334.448 220.551 332.542L208.799 330.812C205.615 330.341 203.006 327.871 202.359 324.551C208.524 320.373 214.145 313.655 218.431 305.33H219.753C226.205 305.33 231.454 299.922 231.454 293.275C231.454 288.769 228.958 284.679 225.165 282.632C225.165 282.632 225.604 272.222 225.604 272.179C225.604 250.575 208.545 233 187.577 233C166.609 233 149.551 250.575 149.551 272.179C149.551 272.222 149.552 272.266 149.553 272.31L149.989 282.632C146.196 284.679 143.7 288.769 143.7 293.275C143.7 299.922 148.949 305.33 155.401 305.33H156.723C161.01 313.656 166.631 320.373 172.796 324.551C172.152 327.847 169.554 330.338 166.358 330.812L154.604 332.542C141.627 334.451 132 345.905 132 359.391V384.29C132 385.955 133.31 387.304 134.925 387.304H203.665C205.281 387.304 206.59 385.955 206.59 384.29C206.59 382.626 205.281 381.277 203.665 381.277H190.502V357.621L206.854 336.559C207.222 336.645 207.593 336.723 207.97 336.778L213.903 337.652V357.685C210.499 358.929 208.053 362.279 208.053 366.208C208.053 371.193 211.99 375.249 216.828 375.249C221.667 375.249 225.604 371.193 225.604 366.208C225.604 362.279 223.158 358.929 219.753 357.685V338.514C229.761 340.002 237.304 348.971 237.304 359.391V381.277H229.991ZM187.577 351.739L173.711 333.879C175.745 332.213 177.264 329.981 178.091 327.451C181.213 328.77 184.39 329.44 187.577 329.44C190.764 329.44 193.941 328.77 197.063 327.452C197.89 329.984 199.409 332.217 201.443 333.881L187.577 351.739ZM187.577 239.028C205.299 239.028 219.72 253.864 219.753 272.115L219.39 280.707C216.195 279.51 213.903 276.347 213.903 272.652V272.179C213.903 270.515 212.594 269.165 210.978 269.165H200.664C193.707 269.165 187.453 265.184 184.343 258.776C183.736 257.526 182.375 256.87 181.055 257.19C179.735 257.512 178.802 258.726 178.802 260.124C178.802 265.109 174.865 269.165 170.026 269.165H164.176C162.561 269.165 161.251 270.515 161.251 272.179V272.652C161.251 276.349 158.957 279.514 155.765 280.709L155.401 272.115C155.434 253.864 169.856 239.028 187.577 239.028ZM161.131 300.978C160.637 299.952 159.622 299.303 158.51 299.303H155.401C152.175 299.303 149.551 296.599 149.551 293.275C149.551 288.476 153.99 287.55 154.596 287.144C160.806 286.391 165.808 281.474 166.886 275.193H170.026C175.609 275.193 180.471 271.953 182.935 267.204C187.42 272.242 193.781 275.193 200.664 275.193H208.268C209.346 281.47 214.343 286.385 220.556 287.143C221.146 287.539 225.604 288.497 225.604 293.275C225.604 296.599 222.979 299.303 219.753 299.303H216.644C215.532 299.303 214.517 299.952 214.023 300.978C208.876 311.677 199.177 323.413 187.577 323.413C176.011 323.413 166.357 311.84 161.131 300.978ZM137.85 381.277V359.391C137.85 348.972 145.393 340.003 155.401 338.514V347.826C148.733 349.226 143.7 355.314 143.7 362.591V372.235C143.7 373.9 145.01 375.249 146.626 375.249H152.476C154.091 375.249 155.401 373.9 155.401 372.235C155.401 370.571 154.091 369.222 152.476 369.222H149.551V362.591C149.551 357.606 153.487 353.55 158.326 353.55C163.165 353.55 167.101 357.606 167.101 362.591V369.222H164.176C162.561 369.222 161.251 370.571 161.251 372.235C161.251 373.9 162.561 375.249 164.176 375.249H170.026C171.642 375.249 172.952 373.9 172.952 372.235V362.591C172.952 355.314 167.919 349.226 161.251 347.826V337.652L167.186 336.778C167.562 336.722 167.933 336.646 168.299 336.559L184.652 357.621V381.277H137.85ZM216.828 369.222C215.215 369.222 213.903 367.87 213.903 366.208C213.903 364.546 215.215 363.194 216.828 363.194C218.441 363.194 219.753 364.546 219.753 366.208C219.753 367.87 218.441 369.222 216.828 369.222Z" fill="#202244"/>
<path d="M97.944 438.252C96.264 438.252 94.752 437.964 93.408 437.388C92.064 436.788 91.008 435.948 90.24 434.868C89.472 433.788 89.088 432.528 89.088 431.088H93.48C93.576 432.168 93.996 433.056 94.74 433.752C95.508 434.448 96.576 434.796 97.944 434.796C99.36 434.796 100.464 434.46 101.256 433.788C102.048 433.092 102.444 432.204 102.444 431.124C102.444 430.284 102.192 429.6 101.688 429.072C101.208 428.544 100.596 428.136 99.852 427.848C99.132 427.56 98.124 427.248 96.828 426.912C95.196 426.48 93.864 426.048 92.832 425.616C91.824 425.16 90.96 424.464 90.24 423.528C89.52 422.592 89.16 421.344 89.16 419.784C89.16 418.344 89.52 417.084 90.24 416.004C90.96 414.924 91.968 414.096 93.264 413.52C94.56 412.944 96.06 412.656 97.764 412.656C100.188 412.656 102.168 413.268 103.704 414.492C105.264 415.692 106.128 417.348 106.296 419.46H101.76C101.688 418.548 101.256 417.768 100.464 417.12C99.672 416.472 98.628 416.148 97.332 416.148C96.156 416.148 95.196 416.448 94.452 417.048C93.708 417.648 93.336 418.512 93.336 419.64C93.336 420.408 93.564 421.044 94.02 421.548C94.5 422.028 95.1 422.412 95.82 422.7C96.54 422.988 97.524 423.3 98.772 423.636C100.428 424.092 101.772 424.548 102.804 425.004C103.86 425.46 104.748 426.168 105.468 427.128C106.212 428.064 106.584 429.324 106.584 430.908C106.584 432.18 106.236 433.38 105.54 434.508C104.868 435.636 103.872 436.548 102.552 437.244C101.256 437.916 99.72 438.252 97.944 438.252ZM119.791 438.324C117.919 438.324 116.227 437.904 114.715 437.064C113.203 436.2 112.015 435 111.151 433.464C110.287 431.904 109.855 430.104 109.855 428.064C109.855 426.048 110.299 424.26 111.187 422.7C112.075 421.14 113.287 419.94 114.823 419.1C116.359 418.26 118.075 417.84 119.971 417.84C121.867 417.84 123.583 418.26 125.119 419.1C126.655 419.94 127.867 421.14 128.755 422.7C129.643 424.26 130.087 426.048 130.087 428.064C130.087 430.08 129.631 431.868 128.719 433.428C127.807 434.988 126.559 436.2 124.975 437.064C123.415 437.904 121.687 438.324 119.791 438.324ZM119.791 434.76C120.847 434.76 121.831 434.508 122.743 434.004C123.679 433.5 124.435 432.744 125.011 431.736C125.587 430.728 125.875 429.504 125.875 428.064C125.875 426.624 125.599 425.412 125.047 424.428C124.495 423.42 123.763 422.664 122.851 422.16C121.939 421.656 120.955 421.404 119.899 421.404C118.843 421.404 117.859 421.656 116.947 422.16C116.059 422.664 115.351 423.42 114.823 424.428C114.295 425.412 114.031 426.624 114.031 428.064C114.031 430.2 114.571 431.856 115.651 433.032C116.755 434.184 118.135 434.76 119.791 434.76ZM157.916 417.84C159.476 417.84 160.868 418.164 162.092 418.812C163.34 419.46 164.312 420.42 165.008 421.692C165.728 422.964 166.088 424.5 166.088 426.3V438H162.02V426.912C162.02 425.136 161.576 423.78 160.688 422.844C159.8 421.884 158.588 421.404 157.052 421.404C155.516 421.404 154.292 421.884 153.38 422.844C152.492 423.78 152.048 425.136 152.048 426.912V438H147.98V426.912C147.98 425.136 147.536 423.78 146.648 422.844C145.76 421.884 144.548 421.404 143.012 421.404C141.476 421.404 140.252 421.884 139.34 422.844C138.452 423.78 138.008 425.136 138.008 426.912V438H133.904V418.164H138.008V420.432C138.68 419.616 139.532 418.98 140.564 418.524C141.596 418.068 142.7 417.84 143.876 417.84C145.46 417.84 146.876 418.176 148.124 418.848C149.372 419.52 150.332 420.492 151.004 421.764C151.604 420.564 152.54 419.616 153.812 418.92C155.084 418.2 156.452 417.84 157.916 417.84ZM179.242 412.98C181.906 412.98 184.234 413.496 186.226 414.528C188.242 415.536 189.79 417 190.87 418.92C191.974 420.816 192.526 423.036 192.526 425.58C192.526 428.124 191.974 430.332 190.87 432.204C189.79 434.076 188.242 435.516 186.226 436.524C184.234 437.508 181.906 438 179.242 438H171.07V412.98H179.242ZM179.242 434.652C182.17 434.652 184.414 433.86 185.974 432.276C187.534 430.692 188.314 428.46 188.314 425.58C188.314 422.676 187.534 420.408 185.974 418.776C184.414 417.144 182.17 416.328 179.242 416.328H175.174V434.652H179.242ZM204.957 438.324C203.085 438.324 201.393 437.904 199.881 437.064C198.369 436.2 197.181 435 196.317 433.464C195.453 431.904 195.021 430.104 195.021 428.064C195.021 426.048 195.465 424.26 196.353 422.7C197.241 421.14 198.453 419.94 199.989 419.1C201.525 418.26 203.241 417.84 205.137 417.84C207.033 417.84 208.749 418.26 210.285 419.1C211.821 419.94 213.033 421.14 213.921 422.7C214.809 424.26 215.253 426.048 215.253 428.064C215.253 430.08 214.797 431.868 213.885 433.428C212.973 434.988 211.725 436.2 210.141 437.064C208.581 437.904 206.853 438.324 204.957 438.324ZM204.957 434.76C206.013 434.76 206.997 434.508 207.909 434.004C208.845 433.5 209.601 432.744 210.177 431.736C210.753 430.728 211.041 429.504 211.041 428.064C211.041 426.624 210.765 425.412 210.213 424.428C209.661 423.42 208.929 422.664 208.017 422.16C207.105 421.656 206.121 421.404 205.065 421.404C204.009 421.404 203.025 421.656 202.113 422.16C201.225 422.664 200.517 423.42 199.989 424.428C199.461 425.412 199.197 426.624 199.197 428.064C199.197 430.2 199.737 431.856 200.817 433.032C201.921 434.184 203.301 434.76 204.957 434.76ZM217.702 428.064C217.702 426.024 218.11 424.236 218.926 422.7C219.766 421.14 220.918 419.94 222.382 419.1C223.846 418.26 225.526 417.84 227.422 417.84C229.822 417.84 231.802 418.416 233.362 419.568C234.946 420.696 236.014 422.316 236.566 424.428H232.138C231.778 423.444 231.202 422.676 230.41 422.124C229.618 421.572 228.622 421.296 227.422 421.296C225.742 421.296 224.398 421.896 223.39 423.096C222.406 424.272 221.914 425.928 221.914 428.064C221.914 430.2 222.406 431.868 223.39 433.068C224.398 434.268 225.742 434.868 227.422 434.868C229.798 434.868 231.37 433.824 232.138 431.736H236.566C235.99 433.752 234.91 435.36 233.326 436.56C231.742 437.736 229.774 438.324 227.422 438.324C225.526 438.324 223.846 437.904 222.382 437.064C220.918 436.2 219.766 435 218.926 433.464C218.11 431.904 217.702 430.104 217.702 428.064ZM245.204 421.512V432.492C245.204 433.236 245.372 433.776 245.708 434.112C246.068 434.424 246.668 434.58 247.508 434.58H250.028V438H246.788C244.94 438 243.524 437.568 242.54 436.704C241.556 435.84 241.064 434.436 241.064 432.492V421.512H238.724V418.164H241.064V413.232H245.204V418.164H250.028V421.512H245.204ZM262.175 438.324C260.303 438.324 258.611 437.904 257.099 437.064C255.587 436.2 254.399 435 253.535 433.464C252.671 431.904 252.239 430.104 252.239 428.064C252.239 426.048 252.683 424.26 253.571 422.7C254.459 421.14 255.671 419.94 257.207 419.1C258.743 418.26 260.459 417.84 262.355 417.84C264.251 417.84 265.967 418.26 267.503 419.1C269.039 419.94 270.251 421.14 271.139 422.7C272.027 424.26 272.471 426.048 272.471 428.064C272.471 430.08 272.015 431.868 271.103 433.428C270.191 434.988 268.943 436.2 267.359 437.064C265.799 437.904 264.071 438.324 262.175 438.324ZM262.175 434.76C263.231 434.76 264.215 434.508 265.127 434.004C266.063 433.5 266.819 432.744 267.395 431.736C267.971 430.728 268.259 429.504 268.259 428.064C268.259 426.624 267.983 425.412 267.431 424.428C266.879 423.42 266.147 422.664 265.235 422.16C264.323 421.656 263.339 421.404 262.283 421.404C261.227 421.404 260.243 421.656 259.331 422.16C258.443 422.664 257.735 423.42 257.207 424.428C256.679 425.412 256.415 426.624 256.415 428.064C256.415 430.2 256.955 431.856 258.035 433.032C259.139 434.184 260.519 434.76 262.175 434.76ZM280.392 421.044C280.992 420.036 281.784 419.256 282.768 418.704C283.776 418.128 284.964 417.84 286.332 417.84V422.088H285.288C283.68 422.088 282.456 422.496 281.616 423.312C280.8 424.128 280.392 425.544 280.392 427.56V438H276.288V418.164H280.392V421.044Z" fill="white"/>
</g>
<defs>
<clipPath id="clip0_46_2654">
<rect width="375" height="812" rx="30" fill="white"/>
</clipPath>
</defs>
</svg>
